<svg xmlns="http://www.w3.org/2000/svg" xmlns:xlink="http://www.w3.org/1999/xlink" width="500" zoomAndPan="magnify" viewBox="0 0 375 374.999991" height="500" preserveAspectRatio="xMidYMid meet" version="1.2"><defs><clipPath id="fcb35c6c4d"><path d="M 180 3.65625 L 337 3.65625 L 337 276 L 180 276 Z M 180 3.65625 "/></clipPath><clipPath id="9414f5cdbf"><path d="M 3.195312 99 L 98 99 L 98 346 L 3.195312 346 Z M 3.195312 99 "/></clipPath></defs><g id="5c3beebc55"><path style=" stroke:none;fill-rule:nonzero;fill:#ff6d4d;fill-opacity:1;" d="M 106.429688 174.777344 C 123.816406 176.726562 137.429688 191.34375 137.429688 209.234375 C 137.429688 221.902344 130.5625 232.90625 120.425781 239.007812 C 124 271.960938 123.382812 310.972656 116.296875 356.882812 C 118.207031 357.675781 120.207031 358.292969 122.148438 359.023438 C 140.222656 354.511719 197.867188 337.363281 248.957031 292.125 C 242.503906 285.6875 236.5625 279.042969 230.949219 272.285156 C 226.683594 273.679688 222.21875 274.625 217.492188 274.625 C 193.425781 274.625 173.839844 255.050781 173.839844 230.980469 C 173.839844 218.90625 178.777344 207.96875 186.730469 200.058594 C 174.820312 172.679688 167.328125 145.195312 162.738281 119.578125 C 150.933594 115.941406 142.273438 105.066406 142.273438 92.089844 C 142.273438 81.453125 148.121094 72.246094 156.703125 67.230469 C 155.292969 40.484375 156.585938 18.890625 157.78125 6.28125 C 108.988281 14.054688 66.691406 40.953125 38.71875 79.167969 C 54.222656 89.84375 86.734375 117.808594 106.429688 174.777344 "/><path style=" stroke:none;fill-rule:nonzero;fill:#ff6d4d;fill-opacity:1;" d="M 359.285156 124.914062 C 357.488281 140.722656 354.6875 155.625 351.023438 169.660156 C 351.671875 170.085938 352.375 170.398438 353 170.867188 C 368.347656 182.421875 371.433594 204.316406 359.875 219.671875 C 353.035156 228.753906 342.578125 233.546875 331.992188 233.546875 C 330.058594 233.546875 328.128906 233.359375 326.210938 233.039062 C 314.109375 255.28125 299.632812 274.355469 284.085938 290.804688 C 294.484375 299.457031 305.996094 307.570312 318.503906 315.128906 C 350.582031 282.074219 370.414062 237.0625 370.414062 187.367188 C 370.414062 165.402344 366.355469 144.433594 359.285156 124.914062 "/><g clip-rule="nonzero" clip-path="url(#fcb35c6c4d)"><path style=" stroke:none;fill-rule:nonzero;fill:#ff6d4d;fill-opacity:1;" d="M 181.058594 65.0625 C 192.105469 69.121094 200.050781 79.652344 200.050781 92.089844 C 200.050781 102.183594 194.828125 111.058594 186.960938 116.222656 C 191.160156 139.246094 197.859375 163.828125 208.355469 188.328125 C 211.308594 187.695312 214.355469 187.328125 217.492188 187.328125 C 241.5625 187.328125 261.144531 206.914062 261.144531 230.980469 C 261.144531 241.355469 257.351562 250.769531 251.28125 258.269531 C 256.089844 263.960938 261.113281 269.570312 266.574219 275.003906 C 280.941406 259.710938 294.277344 241.890625 305.375 221.035156 C 301.222656 216.089844 298.449219 210.121094 297.53125 203.566406 C 296.230469 194.351562 298.597656 185.175781 304.195312 177.746094 C 309.792969 170.3125 317.957031 165.503906 327.175781 164.203125 C 327.207031 164.199219 327.230469 164.203125 327.261719 164.199219 C 333.605469 139.75 337.105469 112.371094 336.839844 81.75 C 303.605469 34.628906 248.859375 3.769531 186.8125 3.769531 C 185.414062 3.769531 184.066406 3.949219 182.671875 3.976562 C 181.523438 13.957031 179.609375 36.175781 181.058594 65.0625 "/></g><g clip-rule="nonzero" clip-path="url(#9414f5cdbf)"><path style=" stroke:none;fill-rule:nonzero;fill:#ff6d4d;fill-opacity:1;" d="M 96.265625 243.449219 C 80.0625 240.460938 67.726562 226.289062 67.726562 209.234375 C 67.726562 197.476562 73.621094 187.097656 82.578125 180.785156 C 65.1875 131.898438 37.851562 108.398438 25.425781 99.769531 C 11.265625 125.804688 3.214844 155.644531 3.214844 187.367188 C 3.214844 254.464844 39.324219 312.984375 93.0625 345.011719 C 98.527344 305.71875 99.179688 271.910156 96.265625 243.449219 "/></g><path style=" stroke:none;fill-rule:nonzero;fill:#ff6d4d;fill-opacity:1;" d="M 266.433594 308.097656 C 231.851562 339.066406 194.472656 358.308594 166.289062 369.746094 C 173.035156 370.496094 179.867188 370.960938 186.8125 370.960938 C 229.351562 370.960938 268.398438 356.363281 299.527344 332.082031 C 287.664062 324.511719 276.46875 316.582031 266.433594 308.097656 "/></g></svg>