<svg xmlns="http://www.w3.org/2000/svg" xmlns:xlink="http://www.w3.org/1999/xlink" width="200" zoomAndPan="magnify" viewBox="0 0 150 37.5" height="50" preserveAspectRatio="xMidYMid meet" version="1.2"><defs><clipPath id="151b2b7123"><path d="M 54 8.019531 L 59 8.019531 L 59 14.683594 L 54 14.683594 Z M 54 8.019531 "/></clipPath><clipPath id="8f3a2cc55c"><path d="M 58 10 L 60.304688 10 L 60.304688 14 L 58 14 Z M 58 10 "/></clipPath><clipPath id="545212a360"><path d="M 56 8.019531 L 60 8.019531 L 60 13 L 56 13 Z M 56 8.019531 "/></clipPath><clipPath id="29d759da5c"><path d="M 53.644531 9 L 56 9 L 56 14.683594 L 53.644531 14.683594 Z M 53.644531 9 "/></clipPath><clipPath id="cd0ece6295"><path d="M 56 13 L 60 13 L 60 14.683594 L 56 14.683594 Z M 56 13 "/></clipPath></defs><g id="d3c962d40f"><g style="fill:#ffffff;fill-opacity:1;"><g transform="translate(44.959069, 20.757294)"><path style="stroke:none" d="M 2.953125 -3.984375 L 1.03125 -3.984375 C 1.03125 -4.679688 1.316406 -5.21875 1.890625 -5.59375 C 2.460938 -5.96875 3.300781 -6.15625 4.40625 -6.15625 C 4.8125 -6.15625 5.195312 -6.125 5.5625 -6.0625 C 5.925781 -6.007812 6.253906 -5.898438 6.546875 -5.734375 C 6.835938 -5.578125 7.066406 -5.351562 7.234375 -5.0625 C 7.398438 -4.769531 7.484375 -4.390625 7.484375 -3.921875 L 7.484375 -0.953125 C 7.484375 -0.753906 7.5 -0.585938 7.53125 -0.453125 C 7.570312 -0.316406 7.644531 -0.207031 7.75 -0.125 L 7.75 0 L 5.71875 0 L 5.625 -0.65625 C 5.289062 -0.351562 4.921875 -0.132812 4.515625 0 C 4.117188 0.132812 3.660156 0.203125 3.140625 0.203125 C 2.296875 0.203125 1.644531 0.0234375 1.1875 -0.328125 C 0.726562 -0.691406 0.5 -1.171875 0.5 -1.765625 C 0.5 -2.378906 0.734375 -2.816406 1.203125 -3.078125 C 1.671875 -3.335938 2.378906 -3.503906 3.328125 -3.578125 C 3.835938 -3.617188 4.265625 -3.648438 4.609375 -3.671875 C 4.960938 -3.703125 5.226562 -3.757812 5.40625 -3.84375 C 5.582031 -3.9375 5.671875 -4.09375 5.671875 -4.3125 C 5.671875 -4.757812 5.210938 -4.984375 4.296875 -4.984375 C 3.847656 -4.984375 3.507812 -4.90625 3.28125 -4.75 C 3.0625 -4.59375 2.953125 -4.335938 2.953125 -3.984375 Z M 5.671875 -2.875 C 5.484375 -2.769531 5.257812 -2.703125 5 -2.671875 C 4.75 -2.640625 4.472656 -2.601562 4.171875 -2.5625 C 3.648438 -2.507812 3.253906 -2.441406 2.984375 -2.359375 C 2.710938 -2.273438 2.578125 -2.085938 2.578125 -1.796875 C 2.578125 -1.578125 2.664062 -1.394531 2.84375 -1.25 C 3.019531 -1.113281 3.265625 -1.046875 3.578125 -1.046875 C 4.203125 -1.046875 4.707031 -1.195312 5.09375 -1.5 C 5.476562 -1.800781 5.671875 -2.1875 5.671875 -2.65625 Z M 5.671875 -2.875 "/></g></g><g style="fill:#ffffff;fill-opacity:1;"><g transform="translate(53.210545, 20.757294)"><path style="stroke:none" d="M -0.109375 -5.953125 L 1.953125 -5.953125 L 3.546875 -2.125 L 5.265625 -5.953125 L 7.296875 -5.953125 L 3.953125 0.875 C 3.804688 1.195312 3.644531 1.445312 3.46875 1.625 C 3.300781 1.800781 3.101562 1.921875 2.875 1.984375 C 2.65625 2.054688 2.382812 2.09375 2.0625 2.09375 L 0.796875 2.09375 L 0.796875 0.6875 L 1.875 0.6875 C 2.113281 0.6875 2.285156 0.613281 2.390625 0.46875 C 2.503906 0.320312 2.5625 0.160156 2.5625 -0.015625 C 2.5625 -0.0859375 2.550781 -0.160156 2.53125 -0.234375 C 2.519531 -0.316406 2.488281 -0.414062 2.4375 -0.53125 Z M -0.109375 -5.953125 "/></g></g><g style="fill:#ffffff;fill-opacity:1;"><g transform="translate(60.40583, 20.757294)"><path style="stroke:none" d="M 2.59375 -5.953125 L 2.59375 -5.171875 C 3.144531 -5.828125 3.75 -6.15625 4.40625 -6.15625 C 4.46875 -6.15625 4.550781 -6.148438 4.65625 -6.140625 C 4.757812 -6.140625 4.847656 -6.128906 4.921875 -6.109375 L 4.921875 -4.546875 C 4.867188 -4.554688 4.78125 -4.5625 4.65625 -4.5625 C 4.539062 -4.570312 4.429688 -4.578125 4.328125 -4.578125 C 3.796875 -4.578125 3.375 -4.40625 3.0625 -4.0625 C 2.75 -3.726562 2.59375 -3.257812 2.59375 -2.65625 L 2.59375 0 L 0.75 0 L 0.75 -5.953125 Z M 2.59375 -5.953125 "/></g></g><g style="fill:#ffffff;fill-opacity:1;"><g transform="translate(65.43423, 20.757294)"><path style="stroke:none" d=""/></g></g><g style="fill:#ffffff;fill-opacity:1;"><g transform="translate(84.344628, 20.757294)"><path style="stroke:none" d="M 0.390625 -2.984375 C 0.390625 -3.628906 0.539062 -4.1875 0.84375 -4.65625 C 1.144531 -5.132812 1.578125 -5.503906 2.140625 -5.765625 C 2.703125 -6.023438 3.378906 -6.15625 4.171875 -6.15625 C 4.960938 -6.15625 5.640625 -6.023438 6.203125 -5.765625 C 6.765625 -5.503906 7.191406 -5.132812 7.484375 -4.65625 C 7.785156 -4.1875 7.9375 -3.628906 7.9375 -2.984375 C 7.9375 -2.328125 7.785156 -1.757812 7.484375 -1.28125 C 7.179688 -0.8125 6.75 -0.445312 6.1875 -0.1875 C 5.625 0.0703125 4.953125 0.203125 4.171875 0.203125 C 3.390625 0.203125 2.71875 0.0703125 2.15625 -0.1875 C 1.59375 -0.445312 1.15625 -0.8125 0.84375 -1.28125 C 0.539062 -1.757812 0.390625 -2.328125 0.390625 -2.984375 Z M 2.390625 -2.96875 C 2.390625 -2.445312 2.550781 -2.019531 2.875 -1.6875 C 3.195312 -1.363281 3.628906 -1.203125 4.171875 -1.203125 C 4.703125 -1.203125 5.125 -1.367188 5.4375 -1.703125 C 5.757812 -2.035156 5.921875 -2.460938 5.921875 -2.984375 C 5.921875 -3.503906 5.757812 -3.925781 5.4375 -4.25 C 5.125 -4.570312 4.703125 -4.734375 4.171875 -4.734375 C 3.628906 -4.734375 3.195312 -4.566406 2.875 -4.234375 C 2.550781 -3.910156 2.390625 -3.488281 2.390625 -2.96875 Z M 2.390625 -2.96875 "/></g></g><g style="fill:#ffffff;fill-opacity:1;"><g transform="translate(92.673117, 20.757294)"><path style="stroke:none" d="M 2.59375 -5.953125 L 2.59375 -5.171875 C 3.144531 -5.828125 3.75 -6.15625 4.40625 -6.15625 C 4.46875 -6.15625 4.550781 -6.148438 4.65625 -6.140625 C 4.757812 -6.140625 4.847656 -6.128906 4.921875 -6.109375 L 4.921875 -4.546875 C 4.867188 -4.554688 4.78125 -4.5625 4.65625 -4.5625 C 4.539062 -4.570312 4.429688 -4.578125 4.328125 -4.578125 C 3.796875 -4.578125 3.375 -4.40625 3.0625 -4.0625 C 2.75 -3.726562 2.59375 -3.257812 2.59375 -2.65625 L 2.59375 0 L 0.75 0 L 0.75 -5.953125 Z M 2.59375 -5.953125 "/></g></g><g style="fill:#ffffff;fill-opacity:1;"><g transform="translate(97.701017, 20.757294)"><path style="stroke:none" d="M 7.46875 -1.9375 C 7.21875 -1.257812 6.789062 -0.734375 6.1875 -0.359375 C 5.59375 0.015625 4.859375 0.203125 3.984375 0.203125 C 3.242188 0.203125 2.601562 0.0703125 2.0625 -0.1875 C 1.53125 -0.445312 1.117188 -0.8125 0.828125 -1.28125 C 0.535156 -1.757812 0.390625 -2.328125 0.390625 -2.984375 C 0.390625 -3.628906 0.53125 -4.1875 0.8125 -4.65625 C 1.101562 -5.132812 1.519531 -5.503906 2.0625 -5.765625 C 2.601562 -6.023438 3.242188 -6.15625 3.984375 -6.15625 C 5.128906 -6.15625 6.007812 -5.859375 6.625 -5.265625 C 7.25 -4.679688 7.5625 -3.84375 7.5625 -2.75 L 7.5625 -2.5 L 2.46875 -2.5 C 2.46875 -2.0625 2.609375 -1.710938 2.890625 -1.453125 C 3.179688 -1.191406 3.546875 -1.0625 3.984375 -1.0625 C 4.335938 -1.0625 4.640625 -1.140625 4.890625 -1.296875 C 5.140625 -1.453125 5.320312 -1.664062 5.4375 -1.9375 Z M 2.53125 -3.734375 L 5.515625 -3.734375 C 5.492188 -4.097656 5.347656 -4.382812 5.078125 -4.59375 C 4.804688 -4.8125 4.457031 -4.921875 4.03125 -4.921875 C 3.601562 -4.921875 3.253906 -4.8125 2.984375 -4.59375 C 2.710938 -4.382812 2.5625 -4.097656 2.53125 -3.734375 Z M 2.53125 -3.734375 "/></g></g><g style="fill:#ffffff;fill-opacity:1;"><g transform="translate(65.283883, 23.801896)"><path style="stroke:none" d="M 18.5 -9.5625 L 14.390625 -9.5625 C 13.890625 -11.425781 12.390625 -12.359375 9.890625 -12.359375 C 8.378906 -12.359375 7.1875 -11.925781 6.3125 -11.0625 C 5.445312 -10.207031 5.015625 -9.03125 5.015625 -7.53125 C 5.015625 -6.019531 5.445312 -4.835938 6.3125 -3.984375 C 7.1875 -3.128906 8.378906 -2.703125 9.890625 -2.703125 C 11.210938 -2.703125 12.269531 -2.976562 13.0625 -3.53125 C 13.851562 -4.09375 14.3125 -4.863281 14.4375 -5.84375 L 18.5625 -5.84375 C 18.4375 -4.613281 18 -3.53125 17.25 -2.59375 C 16.5 -1.65625 15.5 -0.921875 14.25 -0.390625 C 13 0.128906 11.546875 0.390625 9.890625 0.390625 C 8.046875 0.390625 6.445312 0.0625 5.09375 -0.59375 C 3.738281 -1.25 2.695312 -2.171875 1.96875 -3.359375 C 1.238281 -4.546875 0.875 -5.9375 0.875 -7.53125 C 0.875 -9.113281 1.238281 -10.5 1.96875 -11.6875 C 2.695312 -12.882812 3.738281 -13.8125 5.09375 -14.46875 C 6.445312 -15.125 8.046875 -15.453125 9.890625 -15.453125 C 11.546875 -15.453125 12.992188 -15.191406 14.234375 -14.671875 C 15.484375 -14.160156 16.472656 -13.460938 17.203125 -12.578125 C 17.941406 -11.703125 18.375 -10.695312 18.5 -9.5625 Z M 18.5 -9.5625 "/></g></g><g clip-rule="nonzero" clip-path="url(#151b2b7123)"><path style=" stroke:none;fill-rule:nonzero;fill:#ff6d4d;fill-opacity:1;" d="M 55.511719 11.117188 C 55.824219 11.152344 56.070312 11.417969 56.070312 11.742188 C 56.070312 11.972656 55.949219 12.167969 55.765625 12.28125 C 55.828125 12.875 55.816406 13.582031 55.691406 14.414062 C 55.722656 14.425781 55.761719 14.4375 55.796875 14.449219 C 56.121094 14.371094 57.164062 14.058594 58.089844 13.242188 C 57.972656 13.125 57.863281 13.003906 57.761719 12.882812 C 57.6875 12.90625 57.605469 12.925781 57.519531 12.925781 C 57.085938 12.925781 56.730469 12.570312 56.730469 12.136719 C 56.730469 11.917969 56.820312 11.71875 56.964844 11.574219 C 56.75 11.082031 56.613281 10.582031 56.53125 10.121094 C 56.316406 10.054688 56.160156 9.855469 56.160156 9.621094 C 56.160156 9.429688 56.265625 9.265625 56.421875 9.171875 C 56.394531 8.6875 56.417969 8.296875 56.441406 8.070312 C 55.558594 8.210938 54.792969 8.699219 54.285156 9.390625 C 54.566406 9.582031 55.15625 10.089844 55.511719 11.117188 "/></g><g clip-rule="nonzero" clip-path="url(#8f3a2cc55c)"><path style=" stroke:none;fill-rule:nonzero;fill:#ff6d4d;fill-opacity:1;" d="M 60.085938 10.214844 C 60.050781 10.503906 60 10.773438 59.9375 11.027344 C 59.949219 11.035156 59.960938 11.039062 59.972656 11.046875 C 60.25 11.257812 60.304688 11.652344 60.097656 11.929688 C 59.972656 12.09375 59.78125 12.179688 59.589844 12.179688 C 59.554688 12.179688 59.523438 12.179688 59.488281 12.171875 C 59.269531 12.574219 59.007812 12.917969 58.726562 13.21875 C 58.914062 13.375 59.121094 13.519531 59.347656 13.65625 C 59.925781 13.058594 60.285156 12.246094 60.285156 11.347656 C 60.285156 10.949219 60.214844 10.570312 60.085938 10.214844 "/></g><g clip-rule="nonzero" clip-path="url(#545212a360)"><path style=" stroke:none;fill-rule:nonzero;fill:#ff6d4d;fill-opacity:1;" d="M 56.859375 9.132812 C 57.0625 9.207031 57.203125 9.398438 57.203125 9.621094 C 57.203125 9.804688 57.109375 9.964844 56.96875 10.058594 C 57.042969 10.476562 57.164062 10.921875 57.355469 11.363281 C 57.410156 11.351562 57.464844 11.34375 57.519531 11.34375 C 57.957031 11.34375 58.308594 11.699219 58.308594 12.136719 C 58.308594 12.324219 58.242188 12.492188 58.132812 12.628906 C 58.21875 12.730469 58.308594 12.832031 58.40625 12.929688 C 58.667969 12.65625 58.910156 12.332031 59.109375 11.957031 C 59.035156 11.867188 58.984375 11.757812 58.96875 11.640625 C 58.945312 11.472656 58.988281 11.304688 59.089844 11.171875 C 59.191406 11.039062 59.335938 10.949219 59.503906 10.925781 C 59.621094 10.484375 59.683594 9.988281 59.679688 9.4375 C 59.078125 8.582031 58.085938 8.023438 56.964844 8.023438 C 56.941406 8.023438 56.914062 8.027344 56.890625 8.027344 C 56.871094 8.210938 56.835938 8.609375 56.859375 9.132812 "/></g><g clip-rule="nonzero" clip-path="url(#29d759da5c)"><path style=" stroke:none;fill-rule:nonzero;fill:#ff6d4d;fill-opacity:1;" d="M 55.328125 12.359375 C 55.035156 12.304688 54.8125 12.050781 54.8125 11.742188 C 54.8125 11.527344 54.917969 11.339844 55.078125 11.226562 C 54.765625 10.34375 54.269531 9.917969 54.046875 9.761719 C 53.789062 10.234375 53.644531 10.773438 53.644531 11.347656 C 53.644531 12.558594 54.296875 13.617188 55.269531 14.199219 C 55.367188 13.488281 55.378906 12.875 55.328125 12.359375 "/></g><g clip-rule="nonzero" clip-path="url(#cd0ece6295)"><path style=" stroke:none;fill-rule:nonzero;fill:#ff6d4d;fill-opacity:1;" d="M 58.40625 13.53125 C 57.78125 14.089844 57.105469 14.4375 56.59375 14.644531 C 56.714844 14.660156 56.839844 14.667969 56.964844 14.667969 C 57.734375 14.667969 58.441406 14.402344 59.003906 13.964844 C 58.789062 13.828125 58.585938 13.683594 58.40625 13.53125 "/></g></g></svg>