<svg xmlns="http://www.w3.org/2000/svg" xmlns:xlink="http://www.w3.org/1999/xlink" width="1366" zoomAndPan="magnify" viewBox="0 0 1024.5 576" height="768" preserveAspectRatio="xMidYMid meet" version="1.2"><defs><clipPath id="d969b229e7"><path d="M 327 187.421875 L 366 187.421875 L 366 253 L 327 253 Z M 327 187.421875 "/></clipPath><clipPath id="4471dea2a0"><path d="M 372 209 L 388.886719 209 L 388.886719 245 L 372 245 Z M 372 209 "/></clipPath><clipPath id="c07b58456b"><path d="M 353 187.421875 L 382 187.421875 L 382 238 L 353 238 Z M 353 187.421875 "/></clipPath><clipPath id="2eb8c9a199"><path d="M 320.671875 205 L 339 205 L 339 251 L 320.671875 251 Z M 320.671875 205 "/></clipPath><clipPath id="b4362bd2aa"><path d="M 350 243 L 376 243 L 376 254.886719 L 350 254.886719 Z M 350 243 "/></clipPath></defs><g id="1b73b3c11e"><g style="fill:#ffffff;fill-opacity:1;"><g transform="translate(232.281406, 317.051653)"><path style="stroke:none" d="M 30.015625 -40.53125 L 10.53125 -40.53125 C 10.53125 -47.695312 13.441406 -53.1875 19.265625 -57 C 25.085938 -60.8125 33.632812 -62.71875 44.90625 -62.71875 C 49.007812 -62.71875 52.925781 -62.414062 56.65625 -61.8125 C 60.394531 -61.21875 63.738281 -60.097656 66.6875 -58.453125 C 69.632812 -56.816406 71.945312 -54.503906 73.625 -51.515625 C 75.3125 -48.523438 76.15625 -44.640625 76.15625 -39.859375 L 76.15625 -9.75 C 76.15625 -7.65625 76.335938 -5.9375 76.703125 -4.59375 C 77.078125 -3.25 77.828125 -2.164062 78.953125 -1.34375 L 78.953125 0 L 58.234375 0 L 57.34375 -6.609375 C 53.90625 -3.546875 50.128906 -1.328125 46.015625 0.046875 C 41.910156 1.429688 37.25 2.125 32.03125 2.125 C 23.445312 2.125 16.800781 0.28125 12.09375 -3.40625 C 7.394531 -7.101562 5.046875 -11.941406 5.046875 -17.921875 C 5.046875 -24.191406 7.429688 -28.648438 12.203125 -31.296875 C 16.984375 -33.953125 24.1875 -35.648438 33.8125 -36.390625 C 39.039062 -36.835938 43.425781 -37.191406 46.96875 -37.453125 C 50.519531 -37.710938 53.207031 -38.289062 55.03125 -39.1875 C 56.863281 -40.082031 57.78125 -41.648438 57.78125 -43.890625 C 57.78125 -48.453125 53.113281 -50.734375 43.78125 -50.734375 C 39.226562 -50.734375 35.796875 -49.925781 33.484375 -48.3125 C 31.171875 -46.707031 30.015625 -44.113281 30.015625 -40.53125 Z M 57.78125 -29.234375 C 55.84375 -28.179688 53.582031 -27.488281 51 -27.15625 C 48.425781 -26.820312 45.570312 -26.46875 42.4375 -26.09375 C 37.132812 -25.570312 33.101562 -24.878906 30.34375 -24.015625 C 27.582031 -23.160156 26.203125 -21.273438 26.203125 -18.359375 C 26.203125 -16.046875 27.113281 -14.179688 28.9375 -12.765625 C 30.769531 -11.347656 33.253906 -10.640625 36.390625 -10.640625 C 42.816406 -10.640625 47.988281 -12.1875 51.90625 -15.28125 C 55.820312 -18.382812 57.78125 -22.320312 57.78125 -27.09375 Z M 57.78125 -29.234375 "/></g></g><g style="fill:#ffffff;fill-opacity:1;"><g transform="translate(316.262092, 317.051653)"><path style="stroke:none" d="M -1.125 -60.578125 L 19.828125 -60.578125 L 36.0625 -21.609375 L 53.640625 -60.578125 L 74.359375 -60.578125 L 40.3125 8.84375 C 38.75 12.132812 37.109375 14.691406 35.390625 16.515625 C 33.671875 18.347656 31.671875 19.617188 29.390625 20.328125 C 27.117188 21.035156 24.335938 21.390625 21.046875 21.390625 L 8.0625 21.390625 L 8.0625 6.9375 L 19.15625 6.9375 C 21.539062 6.9375 23.289062 6.207031 24.40625 4.75 C 25.53125 3.300781 26.09375 1.679688 26.09375 -0.109375 C 26.09375 -0.859375 26.015625 -1.644531 25.859375 -2.46875 C 25.710938 -3.289062 25.34375 -4.296875 24.75 -5.484375 Z M -1.125 -60.578125 "/></g></g><g style="fill:#ffffff;fill-opacity:1;"><g transform="translate(389.493237, 317.051653)"><path style="stroke:none" d="M 26.421875 -60.578125 L 26.421875 -52.625 C 32.023438 -59.351562 38.148438 -62.71875 44.796875 -62.71875 C 45.460938 -62.71875 46.316406 -62.675781 47.359375 -62.59375 C 48.410156 -62.519531 49.3125 -62.410156 50.0625 -62.265625 L 50.0625 -46.359375 C 49.53125 -46.429688 48.664062 -46.484375 47.46875 -46.515625 C 46.28125 -46.554688 45.164062 -46.578125 44.125 -46.578125 C 38.675781 -46.578125 34.363281 -44.859375 31.1875 -41.421875 C 28.007812 -37.992188 26.421875 -33.21875 26.421875 -27.09375 L 26.421875 0 L 7.609375 0 L 7.609375 -60.578125 Z M 26.421875 -60.578125 "/></g></g><g style="fill:#ffffff;fill-opacity:1;"><g transform="translate(440.670557, 317.051653)"><path style="stroke:none" d=""/></g></g><g style="fill:#ffffff;fill-opacity:1;"><g transform="translate(648.893207, 317.051653)"><path style="stroke:none" d="M 4.03125 -30.34375 C 4.03125 -36.988281 5.5625 -42.71875 8.625 -47.53125 C 11.6875 -52.351562 16.085938 -56.085938 21.828125 -58.734375 C 27.578125 -61.390625 34.445312 -62.71875 42.4375 -62.71875 C 50.5 -62.71875 57.382812 -61.390625 63.09375 -58.734375 C 68.8125 -56.085938 73.179688 -52.351562 76.203125 -47.53125 C 79.222656 -42.71875 80.734375 -36.988281 80.734375 -30.34375 C 80.734375 -23.695312 79.203125 -17.945312 76.140625 -13.09375 C 73.085938 -8.25 68.703125 -4.5 62.984375 -1.84375 C 57.273438 0.800781 50.425781 2.125 42.4375 2.125 C 34.53125 2.125 27.703125 0.800781 21.953125 -1.84375 C 16.203125 -4.5 11.773438 -8.25 8.671875 -13.09375 C 5.578125 -17.945312 4.03125 -23.695312 4.03125 -30.34375 Z M 24.40625 -30.234375 C 24.40625 -24.929688 26.046875 -20.617188 29.328125 -17.296875 C 32.617188 -13.972656 36.988281 -12.3125 42.4375 -12.3125 C 47.8125 -12.3125 52.140625 -13.988281 55.421875 -17.34375 C 58.710938 -20.707031 60.359375 -25.039062 60.359375 -30.34375 C 60.359375 -35.644531 58.710938 -39.957031 55.421875 -43.28125 C 52.140625 -46.601562 47.8125 -48.265625 42.4375 -48.265625 C 36.988281 -48.265625 32.617188 -46.582031 29.328125 -43.21875 C 26.046875 -39.863281 24.40625 -35.535156 24.40625 -30.234375 Z M 24.40625 -30.234375 "/></g></g><g style="fill:#ffffff;fill-opacity:1;"><g transform="translate(733.657708, 317.051653)"><path style="stroke:none" d="M 26.421875 -60.578125 L 26.421875 -52.625 C 32.023438 -59.351562 38.148438 -62.71875 44.796875 -62.71875 C 45.460938 -62.71875 46.316406 -62.675781 47.359375 -62.59375 C 48.410156 -62.519531 49.3125 -62.410156 50.0625 -62.265625 L 50.0625 -46.359375 C 49.53125 -46.429688 48.664062 -46.484375 47.46875 -46.515625 C 46.28125 -46.554688 45.164062 -46.578125 44.125 -46.578125 C 38.675781 -46.578125 34.363281 -44.859375 31.1875 -41.421875 C 28.007812 -37.992188 26.421875 -33.21875 26.421875 -27.09375 L 26.421875 0 L 7.609375 0 L 7.609375 -60.578125 Z M 26.421875 -60.578125 "/></g></g><g style="fill:#ffffff;fill-opacity:1;"><g transform="translate(784.829947, 317.051653)"><path style="stroke:none" d="M 76.03125 -19.703125 C 73.5 -12.835938 69.1875 -7.484375 63.09375 -3.640625 C 57.007812 0.203125 49.488281 2.125 40.53125 2.125 C 33.070312 2.125 26.597656 0.800781 21.109375 -1.84375 C 15.617188 -4.5 11.398438 -8.25 8.453125 -13.09375 C 5.503906 -17.945312 4.03125 -23.695312 4.03125 -30.34375 C 4.03125 -36.988281 5.484375 -42.71875 8.390625 -47.53125 C 11.304688 -52.351562 15.507812 -56.085938 21 -58.734375 C 26.488281 -61.390625 33 -62.71875 40.53125 -62.71875 C 52.257812 -62.71875 61.273438 -59.710938 67.578125 -53.703125 C 73.890625 -47.691406 77.046875 -39.125 77.046875 -28 L 77.046875 -25.421875 L 25.203125 -25.421875 C 25.203125 -21.015625 26.632812 -17.484375 29.5 -14.828125 C 32.375 -12.179688 36.050781 -10.859375 40.53125 -10.859375 C 44.113281 -10.859375 47.191406 -11.640625 49.765625 -13.203125 C 52.347656 -14.773438 54.203125 -16.941406 55.328125 -19.703125 Z M 25.75 -37.96875 L 56.21875 -37.96875 C 55.914062 -41.695312 54.398438 -44.660156 51.671875 -46.859375 C 48.953125 -49.066406 45.390625 -50.171875 40.984375 -50.171875 C 36.648438 -50.171875 33.117188 -49.066406 30.390625 -46.859375 C 27.671875 -44.660156 26.125 -41.695312 25.75 -37.96875 Z M 25.75 -37.96875 "/></g></g><g style="fill:#ffffff;fill-opacity:1;"><g transform="translate(448.849519, 340.842737)"><path style="stroke:none" d="M 188.1875 -97.25 L 146.40625 -97.25 C 141.34375 -116.238281 126.082031 -125.734375 100.625 -125.734375 C 85.300781 -125.734375 73.207031 -121.375 64.34375 -112.65625 C 55.476562 -103.9375 51.046875 -91.910156 51.046875 -76.578125 C 51.046875 -61.253906 55.476562 -49.226562 64.34375 -40.5 C 73.207031 -31.78125 85.300781 -27.421875 100.625 -27.421875 C 114.132812 -27.421875 124.894531 -30.269531 132.90625 -35.96875 C 140.925781 -41.664062 145.566406 -49.507812 146.828125 -59.5 L 188.8125 -59.5 C 187.550781 -46.976562 183.125 -35.9375 175.53125 -26.375 C 167.9375 -16.8125 157.773438 -9.351562 145.046875 -4 C 132.316406 1.34375 117.507812 4.015625 100.625 4.015625 C 81.925781 4.015625 65.679688 0.675781 51.890625 -6 C 38.109375 -12.6875 27.488281 -22.078125 20.03125 -34.171875 C 12.582031 -46.265625 8.859375 -60.398438 8.859375 -76.578125 C 8.859375 -92.753906 12.582031 -106.890625 20.03125 -118.984375 C 27.488281 -131.078125 38.109375 -140.460938 51.890625 -147.140625 C 65.679688 -153.828125 81.925781 -157.171875 100.625 -157.171875 C 117.507812 -157.171875 132.28125 -154.566406 144.9375 -149.359375 C 157.59375 -144.160156 167.644531 -137.0625 175.09375 -128.0625 C 182.550781 -119.0625 186.914062 -108.789062 188.1875 -97.25 Z M 188.1875 -97.25 "/></g></g><g clip-rule="nonzero" clip-path="url(#d969b229e7)"><path style=" stroke:none;fill-rule:nonzero;fill:#ff6d4d;fill-opacity:1;" d="M 339.632812 218.851562 C 342.828125 219.207031 345.328125 221.894531 345.328125 225.179688 C 345.328125 227.507812 344.066406 229.527344 342.207031 230.648438 C 342.863281 236.703125 342.75 243.867188 341.445312 252.300781 C 341.796875 252.445312 342.164062 252.558594 342.523438 252.691406 C 345.84375 251.863281 356.429688 248.714844 365.816406 240.40625 C 364.628906 239.222656 363.539062 238.003906 362.507812 236.761719 C 361.722656 237.015625 360.902344 237.191406 360.035156 237.191406 C 355.613281 237.191406 352.015625 233.59375 352.015625 229.175781 C 352.015625 226.957031 352.925781 224.945312 354.382812 223.492188 C 352.195312 218.464844 350.820312 213.417969 349.976562 208.710938 C 347.808594 208.042969 346.21875 206.046875 346.21875 203.660156 C 346.21875 201.707031 347.292969 200.015625 348.871094 199.097656 C 348.609375 194.183594 348.847656 190.214844 349.066406 187.898438 C 340.105469 189.328125 332.335938 194.269531 327.195312 201.289062 C 330.046875 203.25 336.015625 208.386719 339.632812 218.851562 "/></g><g clip-rule="nonzero" clip-path="url(#4471dea2a0)"><path style=" stroke:none;fill-rule:nonzero;fill:#ff6d4d;fill-opacity:1;" d="M 386.078125 209.691406 C 385.75 212.59375 385.234375 215.332031 384.5625 217.910156 C 384.683594 217.988281 384.8125 218.046875 384.925781 218.132812 C 387.746094 220.253906 388.3125 224.277344 386.1875 227.097656 C 384.933594 228.765625 383.011719 229.644531 381.066406 229.644531 C 380.710938 229.644531 380.359375 229.609375 380.003906 229.550781 C 377.78125 233.636719 375.125 237.140625 372.265625 240.164062 C 374.175781 241.753906 376.292969 243.242188 378.589844 244.632812 C 384.480469 238.558594 388.125 230.292969 388.125 221.164062 C 388.125 217.128906 387.378906 213.277344 386.078125 209.691406 "/></g><g clip-rule="nonzero" clip-path="url(#c07b58456b)"><path style=" stroke:none;fill-rule:nonzero;fill:#ff6d4d;fill-opacity:1;" d="M 353.34375 198.699219 C 355.371094 199.441406 356.832031 201.378906 356.832031 203.660156 C 356.832031 205.515625 355.871094 207.144531 354.425781 208.09375 C 355.199219 212.324219 356.429688 216.839844 358.355469 221.339844 C 358.898438 221.222656 359.457031 221.15625 360.035156 221.15625 C 364.457031 221.15625 368.054688 224.753906 368.054688 229.175781 C 368.054688 231.078125 367.355469 232.808594 366.242188 234.1875 C 367.125 235.230469 368.046875 236.261719 369.050781 237.261719 C 371.691406 234.453125 374.140625 231.179688 376.179688 227.347656 C 375.414062 226.4375 374.90625 225.34375 374.738281 224.136719 C 374.5 222.445312 374.933594 220.761719 375.960938 219.394531 C 376.988281 218.03125 378.488281 217.148438 380.183594 216.90625 C 380.1875 216.90625 380.191406 216.90625 380.199219 216.90625 C 381.363281 212.417969 382.007812 207.386719 381.957031 201.761719 C 375.851562 193.105469 365.796875 187.4375 354.398438 187.4375 C 354.144531 187.4375 353.894531 187.472656 353.640625 187.476562 C 353.429688 189.308594 353.078125 193.390625 353.34375 198.699219 "/></g><g clip-rule="nonzero" clip-path="url(#2eb8c9a199)"><path style=" stroke:none;fill-rule:nonzero;fill:#ff6d4d;fill-opacity:1;" d="M 337.765625 231.464844 C 334.789062 230.914062 332.523438 228.3125 332.523438 225.179688 C 332.523438 223.019531 333.609375 221.113281 335.253906 219.953125 C 332.058594 210.972656 327.039062 206.65625 324.753906 205.074219 C 322.152344 209.855469 320.675781 215.335938 320.675781 221.164062 C 320.675781 233.488281 327.308594 244.238281 337.179688 250.121094 C 338.183594 242.902344 338.300781 236.691406 337.765625 231.464844 "/></g><g clip-rule="nonzero" clip-path="url(#b4362bd2aa)"><path style=" stroke:none;fill-rule:nonzero;fill:#ff6d4d;fill-opacity:1;" d="M 369.023438 243.339844 C 362.671875 249.027344 355.804688 252.5625 350.628906 254.664062 C 351.867188 254.800781 353.125 254.886719 354.398438 254.886719 C 362.214844 254.886719 369.386719 252.203125 375.105469 247.746094 C 372.925781 246.355469 370.867188 244.898438 369.023438 243.339844 "/></g></g></svg>