<svg xmlns="http://www.w3.org/2000/svg" xmlns:xlink="http://www.w3.org/1999/xlink" width="80" zoomAndPan="magnify" viewBox="0 0 60 30.000001" height="40" preserveAspectRatio="xMidYMid meet" version="1.2"><defs><clipPath id="e1bd415573"><path d="M 19 8.628906 L 22 8.628906 L 22 12 L 19 12 Z M 19 8.628906 "/></clipPath><clipPath id="fd0b41b76d"><path d="M 21 9 L 22.511719 9 L 22.511719 12 L 21 12 Z M 21 9 "/></clipPath><clipPath id="6a95fdc917"><path d="M 20 8.628906 L 22.511719 8.628906 L 22.511719 12 L 20 12 Z M 20 8.628906 "/></clipPath><clipPath id="2141c39111"><path d="M 18.882812 9 L 20 9 L 20 12 L 18.882812 12 Z M 18.882812 9 "/></clipPath><clipPath id="87de991985"><path d="M 20 11 L 22 11 L 22 12.261719 L 20 12.261719 Z M 20 11 "/></clipPath></defs><g id="0d7ccdf61c"><g style="fill:#ffffff;fill-opacity:1;"><g transform="translate(14.395077, 15.214112)"><path style="stroke:none" d="M 1.53125 -2.0625 L 0.53125 -2.0625 C 0.53125 -2.425781 0.675781 -2.703125 0.96875 -2.890625 C 1.269531 -3.085938 1.707031 -3.1875 2.28125 -3.1875 C 2.488281 -3.1875 2.6875 -3.171875 2.875 -3.140625 C 3.0625 -3.109375 3.226562 -3.050781 3.375 -2.96875 C 3.53125 -2.882812 3.648438 -2.765625 3.734375 -2.609375 C 3.828125 -2.460938 3.875 -2.269531 3.875 -2.03125 L 3.875 -0.5 C 3.875 -0.382812 3.878906 -0.289062 3.890625 -0.21875 C 3.910156 -0.15625 3.953125 -0.101562 4.015625 -0.0625 L 4.015625 0 L 2.953125 0 L 2.90625 -0.328125 C 2.738281 -0.179688 2.550781 -0.0703125 2.34375 0 C 2.132812 0.0703125 1.894531 0.109375 1.625 0.109375 C 1.1875 0.109375 0.847656 0.015625 0.609375 -0.171875 C 0.367188 -0.359375 0.25 -0.601562 0.25 -0.90625 C 0.25 -1.226562 0.367188 -1.457031 0.609375 -1.59375 C 0.859375 -1.726562 1.226562 -1.8125 1.71875 -1.84375 C 1.976562 -1.863281 2.195312 -1.878906 2.375 -1.890625 C 2.5625 -1.910156 2.703125 -1.941406 2.796875 -1.984375 C 2.890625 -2.035156 2.9375 -2.117188 2.9375 -2.234375 C 2.9375 -2.460938 2.695312 -2.578125 2.21875 -2.578125 C 1.988281 -2.578125 1.816406 -2.535156 1.703125 -2.453125 C 1.585938 -2.367188 1.53125 -2.238281 1.53125 -2.0625 Z M 2.9375 -1.484375 C 2.832031 -1.429688 2.710938 -1.394531 2.578125 -1.375 C 2.453125 -1.363281 2.3125 -1.347656 2.15625 -1.328125 C 1.882812 -1.296875 1.675781 -1.257812 1.53125 -1.21875 C 1.394531 -1.175781 1.328125 -1.082031 1.328125 -0.9375 C 1.328125 -0.8125 1.375 -0.710938 1.46875 -0.640625 C 1.5625 -0.578125 1.6875 -0.546875 1.84375 -0.546875 C 2.175781 -0.546875 2.441406 -0.625 2.640625 -0.78125 C 2.835938 -0.9375 2.9375 -1.132812 2.9375 -1.375 Z M 2.9375 -1.484375 "/></g></g><g style="fill:#ffffff;fill-opacity:1;"><g transform="translate(18.660053, 15.214112)"><path style="stroke:none" d="M -0.0625 -3.078125 L 1 -3.078125 L 1.828125 -1.09375 L 2.71875 -3.078125 L 3.78125 -3.078125 L 2.046875 0.453125 C 1.960938 0.617188 1.878906 0.75 1.796875 0.84375 C 1.710938 0.9375 1.609375 1 1.484375 1.03125 C 1.367188 1.070312 1.226562 1.09375 1.0625 1.09375 L 0.40625 1.09375 L 0.40625 0.359375 L 0.96875 0.359375 C 1.09375 0.359375 1.179688 0.316406 1.234375 0.234375 C 1.296875 0.160156 1.328125 0.0820312 1.328125 0 C 1.328125 -0.0390625 1.320312 -0.0820312 1.3125 -0.125 C 1.300781 -0.164062 1.28125 -0.21875 1.25 -0.28125 Z M -0.0625 -3.078125 "/></g></g><g style="fill:#ffffff;fill-opacity:1;"><g transform="translate(22.379112, 15.214112)"><path style="stroke:none" d="M 1.34375 -3.078125 L 1.34375 -2.671875 C 1.625 -3.015625 1.9375 -3.1875 2.28125 -3.1875 C 2.3125 -3.1875 2.351562 -3.179688 2.40625 -3.171875 C 2.457031 -3.171875 2.503906 -3.164062 2.546875 -3.15625 L 2.546875 -2.359375 C 2.515625 -2.359375 2.46875 -2.359375 2.40625 -2.359375 C 2.351562 -2.359375 2.296875 -2.359375 2.234375 -2.359375 C 1.960938 -2.359375 1.742188 -2.269531 1.578125 -2.09375 C 1.421875 -1.925781 1.34375 -1.6875 1.34375 -1.375 L 1.34375 0 L 0.390625 0 L 0.390625 -3.078125 Z M 1.34375 -3.078125 "/></g></g><g style="fill:#ffffff;fill-opacity:1;"><g transform="translate(24.978163, 15.214112)"><path style="stroke:none" d=""/></g></g><g style="fill:#ffffff;fill-opacity:1;"><g transform="translate(34.941476, 15.214112)"><path style="stroke:none" d="M 0.203125 -1.546875 C 0.203125 -1.878906 0.28125 -2.164062 0.4375 -2.40625 C 0.59375 -2.65625 0.816406 -2.847656 1.109375 -2.984375 C 1.398438 -3.117188 1.75 -3.1875 2.15625 -3.1875 C 2.5625 -3.1875 2.910156 -3.117188 3.203125 -2.984375 C 3.492188 -2.847656 3.710938 -2.65625 3.859375 -2.40625 C 4.015625 -2.164062 4.09375 -1.878906 4.09375 -1.546875 C 4.09375 -1.203125 4.015625 -0.90625 3.859375 -0.65625 C 3.710938 -0.414062 3.492188 -0.226562 3.203125 -0.09375 C 2.910156 0.0390625 2.5625 0.109375 2.15625 0.109375 C 1.75 0.109375 1.398438 0.0390625 1.109375 -0.09375 C 0.816406 -0.226562 0.59375 -0.414062 0.4375 -0.65625 C 0.28125 -0.90625 0.203125 -1.203125 0.203125 -1.546875 Z M 1.234375 -1.53125 C 1.234375 -1.257812 1.316406 -1.039062 1.484375 -0.875 C 1.648438 -0.707031 1.875 -0.625 2.15625 -0.625 C 2.425781 -0.625 2.644531 -0.707031 2.8125 -0.875 C 2.976562 -1.050781 3.0625 -1.273438 3.0625 -1.546875 C 3.0625 -1.804688 2.976562 -2.019531 2.8125 -2.1875 C 2.644531 -2.363281 2.425781 -2.453125 2.15625 -2.453125 C 1.875 -2.453125 1.648438 -2.363281 1.484375 -2.1875 C 1.316406 -2.019531 1.234375 -1.800781 1.234375 -1.53125 Z M 1.234375 -1.53125 "/></g></g><g style="fill:#ffffff;fill-opacity:1;"><g transform="translate(39.246259, 15.214112)"><path style="stroke:none" d="M 1.34375 -3.078125 L 1.34375 -2.671875 C 1.625 -3.015625 1.9375 -3.1875 2.28125 -3.1875 C 2.3125 -3.1875 2.351562 -3.179688 2.40625 -3.171875 C 2.457031 -3.171875 2.503906 -3.164062 2.546875 -3.15625 L 2.546875 -2.359375 C 2.515625 -2.359375 2.46875 -2.359375 2.40625 -2.359375 C 2.351562 -2.359375 2.296875 -2.359375 2.234375 -2.359375 C 1.960938 -2.359375 1.742188 -2.269531 1.578125 -2.09375 C 1.421875 -1.925781 1.34375 -1.6875 1.34375 -1.375 L 1.34375 0 L 0.390625 0 L 0.390625 -3.078125 Z M 1.34375 -3.078125 "/></g></g><g style="fill:#ffffff;fill-opacity:1;"><g transform="translate(41.845051, 15.214112)"><path style="stroke:none" d="M 3.859375 -1 C 3.734375 -0.65625 3.515625 -0.382812 3.203125 -0.1875 C 2.890625 0.0078125 2.507812 0.109375 2.0625 0.109375 C 1.675781 0.109375 1.34375 0.0390625 1.0625 -0.09375 C 0.789062 -0.226562 0.578125 -0.414062 0.421875 -0.65625 C 0.273438 -0.90625 0.203125 -1.203125 0.203125 -1.546875 C 0.203125 -1.878906 0.273438 -2.164062 0.421875 -2.40625 C 0.566406 -2.65625 0.78125 -2.847656 1.0625 -2.984375 C 1.34375 -3.117188 1.675781 -3.1875 2.0625 -3.1875 C 2.65625 -3.1875 3.109375 -3.03125 3.421875 -2.71875 C 3.742188 -2.414062 3.90625 -1.984375 3.90625 -1.421875 L 3.90625 -1.296875 L 1.28125 -1.296875 C 1.28125 -1.066406 1.351562 -0.882812 1.5 -0.75 C 1.644531 -0.613281 1.832031 -0.546875 2.0625 -0.546875 C 2.238281 -0.546875 2.390625 -0.585938 2.515625 -0.671875 C 2.648438 -0.753906 2.75 -0.863281 2.8125 -1 Z M 1.3125 -1.921875 L 2.859375 -1.921875 C 2.835938 -2.117188 2.757812 -2.269531 2.625 -2.375 C 2.488281 -2.488281 2.304688 -2.546875 2.078125 -2.546875 C 1.859375 -2.546875 1.679688 -2.488281 1.546875 -2.375 C 1.410156 -2.269531 1.332031 -2.117188 1.3125 -1.921875 Z M 1.3125 -1.921875 "/></g></g><g style="fill:#ffffff;fill-opacity:1;"><g transform="translate(24.977988, 17.254845)"><path style="stroke:none" d="M 9.5625 -4.9375 L 7.4375 -4.9375 C 7.175781 -5.90625 6.398438 -6.390625 5.109375 -6.390625 C 4.328125 -6.390625 3.710938 -6.164062 3.265625 -5.71875 C 2.816406 -5.28125 2.59375 -4.671875 2.59375 -3.890625 C 2.59375 -3.109375 2.816406 -2.492188 3.265625 -2.046875 C 3.710938 -1.609375 4.328125 -1.390625 5.109375 -1.390625 C 5.796875 -1.390625 6.34375 -1.535156 6.75 -1.828125 C 7.15625 -2.117188 7.390625 -2.515625 7.453125 -3.015625 L 9.59375 -3.015625 C 9.53125 -2.378906 9.304688 -1.816406 8.921875 -1.328125 C 8.535156 -0.847656 8.019531 -0.472656 7.375 -0.203125 C 6.726562 0.0664062 5.972656 0.203125 5.109375 0.203125 C 4.160156 0.203125 3.335938 0.0351562 2.640625 -0.296875 C 1.941406 -0.640625 1.398438 -1.117188 1.015625 -1.734375 C 0.640625 -2.347656 0.453125 -3.066406 0.453125 -3.890625 C 0.453125 -4.710938 0.640625 -5.429688 1.015625 -6.046875 C 1.398438 -6.660156 1.941406 -7.132812 2.640625 -7.46875 C 3.335938 -7.8125 4.160156 -7.984375 5.109375 -7.984375 C 5.972656 -7.984375 6.722656 -7.847656 7.359375 -7.578125 C 8.003906 -7.316406 8.515625 -6.957031 8.890625 -6.5 C 9.273438 -6.050781 9.5 -5.53125 9.5625 -4.9375 Z M 9.5625 -4.9375 "/></g></g><g clip-rule="nonzero" clip-path="url(#e1bd415573)"><path style=" stroke:none;fill-rule:nonzero;fill:#ff6d4d;fill-opacity:1;" d="M 19.851562 10.230469 C 20.011719 10.25 20.140625 10.386719 20.140625 10.554688 C 20.140625 10.671875 20.078125 10.777344 19.980469 10.832031 C 20.015625 11.140625 20.007812 11.507812 19.941406 11.9375 C 19.960938 11.941406 19.980469 11.949219 19.996094 11.957031 C 20.167969 11.914062 20.707031 11.753906 21.183594 11.328125 C 21.125 11.269531 21.070312 11.207031 21.015625 11.144531 C 20.976562 11.15625 20.933594 11.164062 20.890625 11.164062 C 20.664062 11.164062 20.480469 10.984375 20.480469 10.757812 C 20.480469 10.644531 20.527344 10.542969 20.601562 10.46875 C 20.492188 10.210938 20.421875 9.953125 20.378906 9.714844 C 20.265625 9.679688 20.1875 9.578125 20.1875 9.457031 C 20.1875 9.359375 20.242188 9.273438 20.320312 9.226562 C 20.308594 8.976562 20.320312 8.773438 20.332031 8.65625 C 19.875 8.726562 19.480469 8.980469 19.21875 9.335938 C 19.363281 9.4375 19.667969 9.699219 19.851562 10.230469 "/></g><g clip-rule="nonzero" clip-path="url(#fd0b41b76d)"><path style=" stroke:none;fill-rule:nonzero;fill:#ff6d4d;fill-opacity:1;" d="M 22.21875 9.765625 C 22.199219 9.914062 22.175781 10.050781 22.140625 10.183594 C 22.144531 10.1875 22.152344 10.191406 22.160156 10.195312 C 22.300781 10.304688 22.332031 10.507812 22.222656 10.652344 C 22.160156 10.738281 22.0625 10.78125 21.960938 10.78125 C 21.945312 10.78125 21.925781 10.78125 21.90625 10.777344 C 21.792969 10.984375 21.660156 11.164062 21.511719 11.316406 C 21.609375 11.398438 21.71875 11.472656 21.835938 11.546875 C 22.136719 11.234375 22.320312 10.816406 22.320312 10.347656 C 22.320312 10.144531 22.285156 9.949219 22.21875 9.765625 "/></g><g clip-rule="nonzero" clip-path="url(#6a95fdc917)"><path style=" stroke:none;fill-rule:nonzero;fill:#ff6d4d;fill-opacity:1;" d="M 20.550781 9.203125 C 20.652344 9.242188 20.726562 9.339844 20.726562 9.457031 C 20.726562 9.550781 20.679688 9.636719 20.605469 9.683594 C 20.644531 9.898438 20.707031 10.128906 20.804688 10.359375 C 20.832031 10.351562 20.859375 10.347656 20.890625 10.347656 C 21.117188 10.347656 21.296875 10.53125 21.296875 10.757812 C 21.296875 10.855469 21.261719 10.941406 21.207031 11.011719 C 21.25 11.066406 21.296875 11.117188 21.347656 11.167969 C 21.484375 11.027344 21.609375 10.859375 21.710938 10.664062 C 21.671875 10.617188 21.648438 10.5625 21.640625 10.5 C 21.628906 10.414062 21.648438 10.328125 21.703125 10.257812 C 21.753906 10.191406 21.832031 10.144531 21.917969 10.132812 C 21.976562 9.902344 22.007812 9.648438 22.007812 9.359375 C 21.695312 8.917969 21.183594 8.632812 20.601562 8.632812 C 20.589844 8.632812 20.578125 8.632812 20.5625 8.632812 C 20.554688 8.726562 20.535156 8.933594 20.550781 9.203125 "/></g><g clip-rule="nonzero" clip-path="url(#2141c39111)"><path style=" stroke:none;fill-rule:nonzero;fill:#ff6d4d;fill-opacity:1;" d="M 19.753906 10.875 C 19.605469 10.847656 19.488281 10.714844 19.488281 10.554688 C 19.488281 10.445312 19.542969 10.347656 19.628906 10.289062 C 19.464844 9.832031 19.207031 9.609375 19.09375 9.53125 C 18.960938 9.773438 18.882812 10.050781 18.882812 10.347656 C 18.882812 10.976562 19.222656 11.523438 19.726562 11.824219 C 19.777344 11.457031 19.78125 11.140625 19.753906 10.875 "/></g><g clip-rule="nonzero" clip-path="url(#87de991985)"><path style=" stroke:none;fill-rule:nonzero;fill:#ff6d4d;fill-opacity:1;" d="M 21.347656 11.480469 C 21.023438 11.769531 20.675781 11.949219 20.410156 12.054688 C 20.472656 12.0625 20.539062 12.066406 20.601562 12.066406 C 21 12.066406 21.367188 11.929688 21.65625 11.703125 C 21.546875 11.632812 21.441406 11.558594 21.347656 11.480469 "/></g></g></svg>