<svg xmlns="http://www.w3.org/2000/svg" xmlns:xlink="http://www.w3.org/1999/xlink" width="40" zoomAndPan="magnify" viewBox="0 0 30 30.000001" height="40" preserveAspectRatio="xMidYMid meet" version="1.2"><defs><clipPath id="0bf899119e"><path d="M 6.480469 10.59375 L 9 10.59375 L 9 13.496094 L 6.480469 13.496094 Z M 6.480469 10.59375 "/></clipPath><clipPath id="264fac51b8"><path d="M 8 11 L 9.386719 11 L 9.386719 13 L 8 13 Z M 8 11 "/></clipPath><clipPath id="5fdc58107b"><path d="M 7 10.59375 L 9 10.59375 L 9 13 L 7 13 Z M 7 10.59375 "/></clipPath><clipPath id="f111ef07e9"><path d="M 6.480469 11 L 8 11 L 8 13.496094 L 6.480469 13.496094 Z M 6.480469 11 "/></clipPath><clipPath id="b689b41de0"><path d="M 7 12 L 9 12 L 9 13.496094 L 7 13.496094 Z M 7 12 "/></clipPath></defs><g id="e2aaa0ca60"><g style="fill:#ffffff;fill-opacity:1;"><g transform="translate(3.074991, 15.590323)"><path style="stroke:none" d="M 1.15625 -1.5625 L 0.40625 -1.5625 C 0.40625 -1.832031 0.515625 -2.039062 0.734375 -2.1875 C 0.960938 -2.34375 1.296875 -2.421875 1.734375 -2.421875 C 1.890625 -2.421875 2.035156 -2.40625 2.171875 -2.375 C 2.316406 -2.351562 2.445312 -2.3125 2.5625 -2.25 C 2.675781 -2.1875 2.765625 -2.097656 2.828125 -1.984375 C 2.898438 -1.867188 2.9375 -1.71875 2.9375 -1.53125 L 2.9375 -0.375 C 2.9375 -0.289062 2.941406 -0.222656 2.953125 -0.171875 C 2.960938 -0.117188 2.992188 -0.078125 3.046875 -0.046875 L 3.046875 0 L 2.25 0 L 2.203125 -0.25 C 2.078125 -0.132812 1.929688 -0.0507812 1.765625 0 C 1.609375 0.0507812 1.429688 0.078125 1.234375 0.078125 C 0.898438 0.078125 0.640625 0.0078125 0.453125 -0.125 C 0.273438 -0.269531 0.1875 -0.457031 0.1875 -0.6875 C 0.1875 -0.925781 0.28125 -1.097656 0.46875 -1.203125 C 0.65625 -1.304688 0.929688 -1.375 1.296875 -1.40625 C 1.503906 -1.414062 1.675781 -1.425781 1.8125 -1.4375 C 1.945312 -1.445312 2.046875 -1.46875 2.109375 -1.5 C 2.179688 -1.539062 2.21875 -1.601562 2.21875 -1.6875 C 2.21875 -1.863281 2.039062 -1.953125 1.6875 -1.953125 C 1.507812 -1.953125 1.375 -1.921875 1.28125 -1.859375 C 1.195312 -1.796875 1.15625 -1.695312 1.15625 -1.5625 Z M 2.21875 -1.125 C 2.144531 -1.082031 2.054688 -1.054688 1.953125 -1.046875 C 1.859375 -1.035156 1.753906 -1.019531 1.640625 -1 C 1.429688 -0.976562 1.273438 -0.953125 1.171875 -0.921875 C 1.066406 -0.890625 1.015625 -0.816406 1.015625 -0.703125 C 1.015625 -0.617188 1.046875 -0.546875 1.109375 -0.484375 C 1.179688 -0.429688 1.28125 -0.40625 1.40625 -0.40625 C 1.644531 -0.40625 1.835938 -0.460938 1.984375 -0.578125 C 2.140625 -0.703125 2.21875 -0.859375 2.21875 -1.046875 Z M 2.21875 -1.125 "/></g></g><g style="fill:#ffffff;fill-opacity:1;"><g transform="translate(6.311864, 15.590323)"><path style="stroke:none" d="M -0.046875 -2.328125 L 0.765625 -2.328125 L 1.390625 -0.828125 L 2.0625 -2.328125 L 2.859375 -2.328125 L 1.546875 0.34375 C 1.492188 0.46875 1.429688 0.5625 1.359375 0.625 C 1.296875 0.695312 1.21875 0.75 1.125 0.78125 C 1.039062 0.8125 0.9375 0.828125 0.8125 0.828125 L 0.3125 0.828125 L 0.3125 0.265625 L 0.734375 0.265625 C 0.828125 0.265625 0.894531 0.234375 0.9375 0.171875 C 0.976562 0.117188 1 0.0625 1 0 C 1 -0.03125 0.992188 -0.0625 0.984375 -0.09375 C 0.984375 -0.125 0.972656 -0.164062 0.953125 -0.21875 Z M -0.046875 -2.328125 "/></g></g><g style="fill:#ffffff;fill-opacity:1;"><g transform="translate(9.134416, 15.590323)"><path style="stroke:none" d="M 1.015625 -2.328125 L 1.015625 -2.03125 C 1.234375 -2.289062 1.46875 -2.421875 1.71875 -2.421875 C 1.75 -2.421875 1.785156 -2.414062 1.828125 -2.40625 C 1.867188 -2.40625 1.898438 -2.398438 1.921875 -2.390625 L 1.921875 -1.78125 C 1.898438 -1.789062 1.867188 -1.796875 1.828125 -1.796875 C 1.785156 -1.796875 1.742188 -1.796875 1.703125 -1.796875 C 1.492188 -1.796875 1.328125 -1.726562 1.203125 -1.59375 C 1.078125 -1.457031 1.015625 -1.273438 1.015625 -1.046875 L 1.015625 0 L 0.296875 0 L 0.296875 -2.328125 Z M 1.015625 -2.328125 "/></g></g><g style="fill:#ffffff;fill-opacity:1;"><g transform="translate(11.106947, 15.590323)"><path style="stroke:none" d=""/></g></g><g style="fill:#ffffff;fill-opacity:1;"><g transform="translate(18.580874, 15.590323)"><path style="stroke:none" d="M 0.15625 -1.171875 C 0.15625 -1.421875 0.210938 -1.640625 0.328125 -1.828125 C 0.453125 -2.015625 0.625 -2.160156 0.84375 -2.265625 C 1.0625 -2.367188 1.328125 -2.421875 1.640625 -2.421875 C 1.941406 -2.421875 2.203125 -2.367188 2.421875 -2.265625 C 2.648438 -2.160156 2.820312 -2.015625 2.9375 -1.828125 C 3.050781 -1.640625 3.109375 -1.421875 3.109375 -1.171875 C 3.109375 -0.910156 3.046875 -0.6875 2.921875 -0.5 C 2.804688 -0.3125 2.640625 -0.164062 2.421875 -0.0625 C 2.203125 0.03125 1.941406 0.078125 1.640625 0.078125 C 1.328125 0.078125 1.0625 0.03125 0.84375 -0.0625 C 0.625 -0.164062 0.453125 -0.3125 0.328125 -0.5 C 0.210938 -0.6875 0.15625 -0.910156 0.15625 -1.171875 Z M 0.9375 -1.171875 C 0.9375 -0.960938 1 -0.789062 1.125 -0.65625 C 1.25 -0.53125 1.421875 -0.46875 1.640625 -0.46875 C 1.835938 -0.46875 2 -0.53125 2.125 -0.65625 C 2.257812 -0.789062 2.328125 -0.960938 2.328125 -1.171875 C 2.328125 -1.367188 2.257812 -1.53125 2.125 -1.65625 C 2 -1.789062 1.835938 -1.859375 1.640625 -1.859375 C 1.421875 -1.859375 1.25 -1.789062 1.125 -1.65625 C 1 -1.53125 0.9375 -1.367188 0.9375 -1.171875 Z M 0.9375 -1.171875 "/></g></g><g style="fill:#ffffff;fill-opacity:1;"><g transform="translate(21.847958, 15.590323)"><path style="stroke:none" d="M 1.015625 -2.328125 L 1.015625 -2.03125 C 1.234375 -2.289062 1.46875 -2.421875 1.71875 -2.421875 C 1.75 -2.421875 1.785156 -2.414062 1.828125 -2.40625 C 1.867188 -2.40625 1.898438 -2.398438 1.921875 -2.390625 L 1.921875 -1.78125 C 1.898438 -1.789062 1.867188 -1.796875 1.828125 -1.796875 C 1.785156 -1.796875 1.742188 -1.796875 1.703125 -1.796875 C 1.492188 -1.796875 1.328125 -1.726562 1.203125 -1.59375 C 1.078125 -1.457031 1.015625 -1.273438 1.015625 -1.046875 L 1.015625 0 L 0.296875 0 L 0.296875 -2.328125 Z M 1.015625 -2.328125 "/></g></g><g style="fill:#ffffff;fill-opacity:1;"><g transform="translate(23.820292, 15.590323)"><path style="stroke:none" d="M 2.921875 -0.765625 C 2.828125 -0.492188 2.660156 -0.285156 2.421875 -0.140625 C 2.191406 0.00390625 1.90625 0.078125 1.5625 0.078125 C 1.269531 0.078125 1.019531 0.03125 0.8125 -0.0625 C 0.601562 -0.164062 0.441406 -0.3125 0.328125 -0.5 C 0.210938 -0.6875 0.15625 -0.910156 0.15625 -1.171875 C 0.15625 -1.421875 0.207031 -1.640625 0.3125 -1.828125 C 0.425781 -2.015625 0.585938 -2.160156 0.796875 -2.265625 C 1.015625 -2.367188 1.269531 -2.421875 1.5625 -2.421875 C 2.007812 -2.421875 2.351562 -2.300781 2.59375 -2.0625 C 2.84375 -1.832031 2.96875 -1.503906 2.96875 -1.078125 L 2.96875 -0.984375 L 0.96875 -0.984375 C 0.96875 -0.804688 1.019531 -0.664062 1.125 -0.5625 C 1.238281 -0.46875 1.382812 -0.421875 1.5625 -0.421875 C 1.695312 -0.421875 1.8125 -0.445312 1.90625 -0.5 C 2.007812 -0.5625 2.082031 -0.648438 2.125 -0.765625 Z M 0.984375 -1.46875 L 2.171875 -1.46875 C 2.148438 -1.601562 2.085938 -1.710938 1.984375 -1.796875 C 1.878906 -1.890625 1.742188 -1.9375 1.578125 -1.9375 C 1.410156 -1.9375 1.273438 -1.890625 1.171875 -1.796875 C 1.066406 -1.710938 1.003906 -1.601562 0.984375 -1.46875 Z M 0.984375 -1.46875 "/></g></g><g style="fill:#ffffff;fill-opacity:1;"><g transform="translate(11.188582, 16.53996)"><path style="stroke:none" d="M 7.25 -3.75 L 5.640625 -3.75 C 5.441406 -4.476562 4.851562 -4.84375 3.875 -4.84375 C 3.28125 -4.84375 2.8125 -4.671875 2.46875 -4.328125 C 2.132812 -3.992188 1.96875 -3.535156 1.96875 -2.953125 C 1.96875 -2.359375 2.132812 -1.894531 2.46875 -1.5625 C 2.8125 -1.226562 3.28125 -1.0625 3.875 -1.0625 C 4.394531 -1.0625 4.804688 -1.171875 5.109375 -1.390625 C 5.421875 -1.609375 5.601562 -1.910156 5.65625 -2.296875 L 7.265625 -2.296875 C 7.222656 -1.804688 7.054688 -1.378906 6.765625 -1.015625 C 6.472656 -0.648438 6.078125 -0.363281 5.578125 -0.15625 C 5.085938 0.0507812 4.519531 0.15625 3.875 0.15625 C 3.15625 0.15625 2.53125 0.0234375 2 -0.234375 C 1.46875 -0.492188 1.054688 -0.851562 0.765625 -1.3125 C 0.484375 -1.78125 0.34375 -2.328125 0.34375 -2.953125 C 0.34375 -3.578125 0.484375 -4.117188 0.765625 -4.578125 C 1.054688 -5.046875 1.46875 -5.40625 2 -5.65625 C 2.53125 -5.914062 3.15625 -6.046875 3.875 -6.046875 C 4.519531 -6.046875 5.085938 -5.945312 5.578125 -5.75 C 6.066406 -5.550781 6.453125 -5.273438 6.734375 -4.921875 C 7.023438 -4.578125 7.195312 -4.1875 7.25 -3.75 Z M 7.25 -3.75 "/></g></g><g clip-rule="nonzero" clip-path="url(#0bf899119e)"><path style=" stroke:none;fill-rule:nonzero;fill:#ff6d4d;fill-opacity:1;" d="M 7.214844 11.808594 C 7.335938 11.824219 7.433594 11.925781 7.433594 12.054688 C 7.433594 12.144531 7.382812 12.222656 7.3125 12.265625 C 7.335938 12.496094 7.332031 12.773438 7.28125 13.097656 C 7.296875 13.105469 7.3125 13.109375 7.324219 13.113281 C 7.453125 13.082031 7.859375 12.960938 8.222656 12.640625 C 8.175781 12.59375 8.136719 12.546875 8.09375 12.5 C 8.066406 12.511719 8.035156 12.515625 8 12.515625 C 7.828125 12.515625 7.691406 12.378906 7.691406 12.207031 C 7.691406 12.121094 7.726562 12.042969 7.78125 11.988281 C 7.699219 11.792969 7.644531 11.601562 7.613281 11.417969 C 7.527344 11.390625 7.46875 11.316406 7.46875 11.222656 C 7.46875 11.148438 7.507812 11.082031 7.570312 11.046875 C 7.558594 10.859375 7.566406 10.707031 7.578125 10.617188 C 7.230469 10.671875 6.929688 10.863281 6.734375 11.132812 C 6.84375 11.207031 7.074219 11.40625 7.214844 11.808594 "/></g><g clip-rule="nonzero" clip-path="url(#264fac51b8)"><path style=" stroke:none;fill-rule:nonzero;fill:#ff6d4d;fill-opacity:1;" d="M 9.003906 11.457031 C 8.992188 11.566406 8.972656 11.671875 8.945312 11.773438 C 8.949219 11.777344 8.957031 11.777344 8.960938 11.78125 C 9.066406 11.863281 9.089844 12.019531 9.007812 12.128906 C 8.960938 12.191406 8.886719 12.226562 8.8125 12.226562 C 8.796875 12.226562 8.785156 12.222656 8.769531 12.222656 C 8.683594 12.378906 8.582031 12.515625 8.472656 12.632812 C 8.546875 12.691406 8.625 12.75 8.714844 12.804688 C 8.941406 12.570312 9.082031 12.25 9.082031 11.898438 C 9.082031 11.742188 9.054688 11.59375 9.003906 11.457031 "/></g><g clip-rule="nonzero" clip-path="url(#5fdc58107b)"><path style=" stroke:none;fill-rule:nonzero;fill:#ff6d4d;fill-opacity:1;" d="M 7.742188 11.03125 C 7.820312 11.0625 7.875 11.136719 7.875 11.222656 C 7.875 11.296875 7.839844 11.359375 7.785156 11.394531 C 7.8125 11.558594 7.859375 11.730469 7.933594 11.90625 C 7.957031 11.902344 7.976562 11.898438 8 11.898438 C 8.171875 11.898438 8.308594 12.035156 8.308594 12.207031 C 8.308594 12.28125 8.28125 12.347656 8.238281 12.402344 C 8.273438 12.441406 8.308594 12.480469 8.347656 12.519531 C 8.449219 12.410156 8.542969 12.285156 8.621094 12.136719 C 8.59375 12.101562 8.574219 12.058594 8.566406 12.011719 C 8.558594 11.949219 8.574219 11.882812 8.613281 11.832031 C 8.652344 11.777344 8.710938 11.742188 8.777344 11.734375 C 8.820312 11.5625 8.847656 11.367188 8.84375 11.148438 C 8.609375 10.816406 8.222656 10.597656 7.78125 10.597656 C 7.773438 10.597656 7.761719 10.597656 7.753906 10.597656 C 7.746094 10.671875 7.730469 10.828125 7.742188 11.03125 "/></g><g clip-rule="nonzero" clip-path="url(#f111ef07e9)"><path style=" stroke:none;fill-rule:nonzero;fill:#ff6d4d;fill-opacity:1;" d="M 7.140625 12.296875 C 7.027344 12.273438 6.9375 12.175781 6.9375 12.054688 C 6.9375 11.96875 6.980469 11.898438 7.042969 11.851562 C 6.921875 11.503906 6.726562 11.339844 6.640625 11.277344 C 6.539062 11.460938 6.480469 11.671875 6.480469 11.898438 C 6.480469 12.375 6.738281 12.789062 7.117188 13.015625 C 7.15625 12.738281 7.160156 12.496094 7.140625 12.296875 "/></g><g clip-rule="nonzero" clip-path="url(#b689b41de0)"><path style=" stroke:none;fill-rule:nonzero;fill:#ff6d4d;fill-opacity:1;" d="M 8.347656 12.753906 C 8.101562 12.972656 7.835938 13.109375 7.636719 13.191406 C 7.683594 13.195312 7.734375 13.199219 7.78125 13.199219 C 8.082031 13.199219 8.359375 13.09375 8.582031 12.921875 C 8.496094 12.871094 8.417969 12.8125 8.347656 12.753906 "/></g></g></svg>